<?xml version="1.0" encoding="utf-8"?>
<!-- Generator: Adobe Illustrator 22.1.0, SVG Export Plug-In . SVG Version: 6.00 Build 0)  -->
<svg version="1.1" id="Layer_1" xmlns="http://www.w3.org/2000/svg" xmlns:xlink="http://www.w3.org/1999/xlink" x="0px" y="0px"
	 viewBox="0 0 500 500" style="enable-background:new 0 0 500 500;" xml:space="preserve">
<style type="text/css">
	.st0{fill:#D32248;}
	.st1{fill:#292B37;}
	.st2{fill:#3F434F;}
	.st3{fill:#5B6D83;}
	.st4{fill:#FAFBFC;}
	.st5{fill:#FFFFFF;}
	.st6{fill:#FAFCFC;}
	.st7{fill:#F27768;}
	.st8{fill:#7D8995;}
	.st9{fill:#303D4C;}
	.st10{fill:#FBBE32;}
	.st11{fill:#F99D20;}
	.st12{fill:#FEFEFE;}
	.st13{fill:#FEFEFF;}
	.st14{fill:#F4F4F4;}
	.st15{fill:#FED96F;}
</style>
<rect x="0.3" class="st0" width="500" height="500"/>
<g>
	<g>
		<path class="st1" d="M128.8,160.6l-0.2,0l-1.3,9.6c-1.8,0.1-3.6,0.3-5.3,0.6l-3.6-9l-0.2,0.1l0,0l-6.6,2.7l-6.7,2.7l0,0l-0.2,0.1
			l3.6,9c-1.5,1-2.9,2-4.3,3.2l-7.6-6l-0.1,0.1l0,0l-4.4,5.7l-4.4,5.6l0,0l-0.1,0.1l7.6,5.9c-0.8,1.6-1.5,3.2-2.1,4.9l-9.6-1.4
			l0,0.2l0,0l-1,7.1l-1,7.1l0,0l0,0.2l9.6,1.3c0.1,1.8,0.3,3.6,0.7,5.3l-9,3.6l5.4,13.5l9-3.6c1,1.5,2.1,3,3.3,4.4l-6,7.6l11.4,9
			l6-7.6c1.6,0.8,3.3,1.6,5.1,2.2l-1.4,9.6l14.4,2l1.4-9.6c1.9-0.1,3.7-0.3,5.5-0.7l3.6,9l13.5-5.4l-3.6-9c1.5-1,3-2.1,4.4-3.3
			l7.6,6l9-11.5l-7.6-6c0.8-1.6,1.6-3.3,2.2-5.1l9.6,1.3l2-14.4l-9.6-1.3c-0.1-1.9-0.3-3.7-0.7-5.5l9-3.6l-5.5-13.5l-9,3.6
			c-1-1.5-2.1-3-3.3-4.4l6-7.6l-11.5-8.9l-5.9,7.6c-1.6-0.8-3.2-1.5-4.9-2.1l1.4-9.6l-0.2,0l0,0l-7.1-1L128.8,160.6L128.8,160.6z
			 M117.2,190c4.3-2.8,9.5-4.1,15-3.3c12.1,1.7,20.5,12.8,18.8,24.8c-1.7,12.1-12.8,20.5-24.9,18.8c-12.1-1.7-20.5-12.8-18.8-24.9
			c0.2-1.6,0.6-3.2,1.2-4.7C110.2,196.3,113.3,192.6,117.2,190z"/>
	</g>
	<g>
		<path class="st2" d="M108.6,181l8.7,9c4.3-2.8,9.5-4.1,15-3.3c12.1,1.7,20.5,12.8,18.8,24.8c-1.7,12.1-12.8,20.5-24.9,18.8
			c-12.1-1.7-20.5-12.8-18.8-24.9c0.2-1.6,0.6-3.2,1.2-4.7L98,194.1c-1.4,3-2.4,6.3-2.9,9.7c-2.6,18.8,10.6,36.2,29.4,38.8
			c18.8,2.6,36.2-10.6,38.8-29.4c2.6-18.8-10.6-36.2-29.4-38.8C124.6,173.2,115.6,175.8,108.6,181z"/>
	</g>
	<path class="st3" d="M418.8,183.4c-10.1-19.4-34-27-53.4-17c-19.4,10.1-27,34-17,53.4c10.1,19.4,34,27,53.4,17
		C421.3,226.7,428.9,202.8,418.8,183.4z"/>
	<path class="st4" d="M383.6,161.9c14.3,0,28.2,7.8,35.2,21.4c10.1,19.4,2.5,43.3-17,53.4c-5.8,3-12.1,4.4-18.2,4.4
		c-14.3,0-28.2-7.8-35.2-21.4c-10.1-19.4-2.5-43.3,17-53.4C371.2,163.4,377.5,161.9,383.6,161.9 M383.6,161.1
		c-3.2,0-6.3,0.4-9.4,1.1c-3.2,0.8-6.2,1.9-9.2,3.4c-4.8,2.5-9.1,5.9-12.5,10.1c-3.3,4-5.8,8.6-7.4,13.6c-1.6,5-2.2,10.2-1.8,15.4
		c0.4,5.4,1.9,10.6,4.4,15.4c3.5,6.7,8.7,12.3,15.2,16.1c6.3,3.7,13.5,5.7,20.8,5.7c3.2,0,6.3-0.4,9.4-1.1c3.2-0.8,6.2-1.9,9.2-3.4
		c4.8-2.5,9.1-5.9,12.5-10.1c3.3-4,5.8-8.6,7.4-13.6c1.6-5,2.2-10.2,1.8-15.4c-0.4-5.4-1.9-10.6-4.4-15.4
		c-3.5-6.7-8.7-12.3-15.2-16.1C398.1,163.1,390.9,161.1,383.6,161.1L383.6,161.1z"/>
	<g>
		<path class="st5" d="M412.2,204.6c-0.1-0.1-0.3-0.3-0.3-0.4c0-0.1-0.1,0-0.2,0.1c-0.1,0.1-0.1,0.5-0.1,0.6c0,0.1,0,0.1,0,0.2
			c0,0.1,0,0.2,0,0.6c0,0,0,0.3,0,0.4c0,0.1,0.1,0.1,0.2,0.3c0.1,0.2,0.1,0.3,0.2,0.5c0.1,0.1,0.2,0,0.5,0c0.2-0.1,0-0.2,0.1-0.4
			c0-0.2,0.1-0.4,0-0.5c-0.1-0.1,0-0.2,0-0.2c0-0.1,0-0.3,0-0.4c-0.1-0.2-0.1-0.3-0.1-0.4C412.5,204.6,412.3,204.6,412.2,204.6z"/>
		<path class="st5" d="M420.6,205.8c-0.1-0.2-0.1,0.2-0.2,0.3c-0.1,0.1-0.1-0.1-0.1-0.2c-0.1-0.1-0.2-0.4-0.3-0.4
			c-0.1-0.1-0.2-0.2-0.3-0.4c-0.1-0.2-0.2-0.2-0.2-0.4c0-0.2,0-0.3-0.2-0.4c-0.2-0.1-0.2,0.1-0.3,0.2c-0.1,0.1-0.2,0.1-0.3,0.1
			c-0.1,0-0.1-0.2-0.2-0.3c-0.1-0.1-0.1,0.1-0.1,0.2c0,0.1,0.1,0.3,0.1,0.4c0,0.1,0,0.3,0,0.4c0.1,0.1,0.1,0.2,0.3,0.2
			c0,0,0.1,0,0.1,0.1c0,0.1,0.1,0.3,0.1,0.4c0,0.2,0,0.5,0.1,0.5c0.1,0.1,0.2,0.2,0.3,0.3c0.1,0.2,0.1,0.2,0.1,0.4
			c0,0.2,0.1,0.1,0.2,0.1c0.1,0,0.2,0,0.3,0c0.1,0.1,0,0.5,0,0.6c0,0.1,0.1,0.6,0.1,0.8c0,0.2,0.2,0.4,0.4,0.6
			c0.2,0.2,0,0.2,0.1,0.5c0.1,0.3,0.2,0,0.3-0.1c0.1-0.1,0.2-0.3,0.2-0.5c0-0.2,0-0.4,0-0.6c0.1-0.2,0.1-0.2,0.2-0.4
			c0.1-0.2,0-0.5-0.1-0.9c-0.1-0.3-0.1-0.1-0.2-0.2c-0.1-0.1-0.1-0.6-0.2-0.7c0-0.2-0.1-0.3-0.2-0.4
			C420.8,206.3,420.7,206,420.6,205.8z"/>
		<path class="st5" d="M419,206.8c0-0.1,0-0.3,0-0.5c-0.1-0.2-0.1,0.1-0.2,0.2C418.6,206.5,418.8,206.7,419,206.8
			C418.9,206.8,419,206.8,419,206.8z"/>
		<path class="st5" d="M419.5,207.5c0.1,0,0.1-0.2,0-0.4c-0.1-0.2-0.1-0.2-0.3-0.2c-0.1,0.1,0,0.2,0.1,0.4
			C419.3,207.4,419.3,207.5,419.5,207.5z"/>
		<path class="st5" d="M419.9,208c0-0.2-0.1-0.1-0.2-0.1c-0.1,0,0,0.1,0,0.4c0,0,0,0.2,0.1,0.1C420,208.3,419.9,208.2,419.9,208z"/>
		<path class="st5" d="M383.6,165c0.1-0.1-0.3-0.1-0.3,0c-0.1,0-0.2,0.2-0.1,0.3C383.2,165.2,383.4,165.1,383.6,165z"/>
		<path class="st5" d="M382.6,165c0.1-0.1-0.1-0.1-0.3-0.1c-0.2-0.1-0.1,0.1,0.1,0.2C382.4,165.2,382.5,165.1,382.6,165z"/>
		<path class="st5" d="M383.6,164.7c0.1-0.1-0.5,0-0.5,0.1l0.1,0.1C383.2,164.8,383.5,164.8,383.6,164.7z"/>
		<path class="st5" d="M388.6,164.5c0.2-0.1-0.3-0.1-0.3-0.1c-0.1,0-0.3-0.1-0.3-0.2c0-0.1-0.1-0.1-0.2,0.1
			c-0.1,0.1,0.1,0.2,0.2,0.3C388,164.6,388.4,164.5,388.6,164.5z"/>
		<path class="st5" d="M388.5,164.6c-0.1,0-0.3,0.1-0.1,0.2c0,0,0.3,0.1,0.5,0.1c0.2,0.1,0.1-0.1,0.3-0.2c0.2-0.1,0.3,0,0.4-0.1
			c0.1-0.1-0.4-0.1-0.8,0C388.4,164.7,388.5,164.6,388.5,164.6z"/>
		<path class="st5" d="M390.4,164.5c0,0,0.1,0.1,0.2,0.1c0.1,0,0.2,0,0.3,0c0.2,0,0.1-0.2,0.1-0.2s0.1-0.2,0.2-0.3
			c0.1-0.1-0.1-0.2-0.2-0.1c-0.1,0.1-0.1,0.3-0.2,0.3c-0.1,0.1-0.2,0.1-0.2,0.1s-0.3-0.1-0.5,0C389.9,164.5,390.1,164.5,390.4,164.5
			z"/>
		<path class="st5" d="M370.4,186.2c-0.1-0.1-0.4,0-0.7,0c-0.3,0-0.5-0.1-0.7-0.1c-0.2,0-0.3,0.4-0.1,0.6c0.2,0.2,0.4,0.2,0.7,0.3
			c0.3,0.1,0.1,0.2,0.3,0.3c0,0,0.1,0.1,0.3,0c0.1-0.1,0.2-0.3,0.3-0.5C370.5,186.6,370.5,186.2,370.4,186.2z"/>
		<path class="st5" d="M367,185.7c0.1,0.1,0.1-0.1,0.3-0.2c0.2-0.1-0.1,0.2,0,0.4c0,0,0.1,0,0.2,0c0.1,0,0.1-0.1,0.1-0.3
			c0-0.2,0.1-0.2,0.3-0.3c0.1-0.1,0.1-0.2,0.1-0.4c0-0.2,0.1-0.6,0.1-0.7c0-0.1-0.3,0.2-0.4,0.3c-0.1,0.1-0.4,0.5-0.6,0.7
			C366.9,185.5,366.9,185.6,367,185.7z"/>
		<path class="st5" d="M368.1,183.9c0.1,0,0-0.1,0.1-0.3c0-0.1,0.2-0.4,0.2-0.5c0-0.2-0.2,0-0.2,0.1c-0.1,0.1-0.2,0.1-0.3,0.2
			C367.7,183.6,367.9,183.7,368.1,183.9C368,183.9,368,183.9,368.1,183.9z"/>
		<path class="st5" d="M374.8,189.1c0.2,0.1,0.1-0.1,0.3-0.1c0,0,0.2,0,0.5,0c0.3,0,0.5,0.2,0.8,0.1c0.2-0.1,0.3-0.2,0.2-0.4
			c-0.1-0.2-0.4-0.1-0.5-0.1c-0.2,0-0.2-0.1-0.3-0.1c-0.1,0-0.3,0-0.4,0c-0.1,0-0.3-0.1-0.4,0c-0.1,0.1,0.1,0.2-0.1,0.3
			C374.7,189,374.7,189.1,374.8,189.1z"/>
		<path class="st5" d="M376.2,186.2c0.1,0.1,0.1-0.1,0.3,0c0,0,0.1,0,0.1,0c0.1,0,0.1-0.2,0.1-0.3c0-0.2-0.2-0.1-0.3-0.2
			c-0.2,0-0.1,0.2-0.1,0.3C376.3,186.1,376.1,186.1,376.2,186.2z"/>
		<path class="st5" d="M376.1,187c0,0,0.1,0,0.2,0c0.1,0,0.2-0.1,0.1-0.3c0-0.2-0.1-0.2-0.3-0.1C375.9,186.7,376,186.8,376.1,187z"
			/>
		<path class="st5" d="M374.7,188c0-0.1,0.1-0.2-0.1-0.2c-0.2,0-0.1,0.2-0.1,0.3C374.5,188.2,374.7,188.1,374.7,188z"/>
		<path class="st5" d="M375.6,187.8c0.2-0.1,0.1-0.1,0-0.2c-0.1-0.2-0.3,0-0.2,0.2C375.4,187.8,375.5,187.9,375.6,187.8z"/>
		<path class="st5" d="M376.5,188c0,0,0.2,0,0.2-0.2c0-0.1,0-0.2-0.2-0.1C376.3,187.8,376.4,187.9,376.5,188z"/>
		<path class="st5" d="M377.2,187.7c0-0.1-0.1-0.1-0.2-0.1c-0.1,0-0.1,0.1,0,0.2C377,187.8,377.1,187.8,377.2,187.7z"/>
		<path class="st5" d="M376.9,188.3c0,0,0.1,0,0.3-0.1c0.1-0.1,0-0.1-0.2-0.2C376.9,187.9,376.8,188,376.9,188.3z"/>
		<path class="st5" d="M377.7,188.4c0.1-0.2-0.1-0.2-0.3-0.3c-0.1,0-0.3,0.2-0.2,0.3c0,0,0,0.1,0.1,0.2
			C377.4,188.7,377.7,188.6,377.7,188.4z"/>
		<path class="st5" d="M377.1,188.4c-0.1-0.1-0.2,0.1-0.2,0.2c0,0,0.1,0.1,0.3,0C377.4,188.5,377.2,188.4,377.1,188.4z"/>
		<path class="st5" d="M380.1,188.8c-0.2,0,0,0.2,0,0.3c0,0.1,0,0.3,0.2,0.5c0,0,0.2,0,0.3-0.1c0.1-0.1,0.3-0.3,0.4-0.4
			c0.2-0.1,0.4-0.1,0.4-0.3c0-0.2,0.3-0.3,0.4-0.3c0.1,0-0.1-0.1-0.3-0.2c-0.2-0.1-0.3,0.1-0.5,0.2c-0.1,0.1-0.3,0.1-0.4,0
			c-0.1-0.2-0.3,0.1-0.2,0.2C380.5,188.8,380.3,188.8,380.1,188.8z"/>
		<path class="st5" d="M389.2,223.6c0,0,0.1,0,0.2,0c0.1,0,0.1-0.2,0-0.4c-0.1-0.1-0.4,0.1-0.5,0.2
			C388.8,223.6,389.1,223.5,389.2,223.6z"/>
		<path class="st5" d="M390.9,223.9c0.2,0.1,0.2-0.1,0.3-0.3c0.1-0.2,0-0.2-0.3-0.2c-0.3,0-0.2,0.1-0.1,0.3
			C390.7,223.8,390.7,223.8,390.9,223.9z"/>
		<path class="st5" d="M392.1,222.6c0.1,0,0.1-0.2-0.1-0.3c-0.1-0.1-0.2,0.2-0.1,0.3C391.9,222.7,392,222.7,392.1,222.6z"/>
		<path class="st5" d="M393.4,224.2c0-0.3-0.3-0.3-0.5-0.4c-0.2-0.1,0-0.6-0.1-0.7c-0.1-0.1-0.2,0.2-0.5,0.5c-0.2,0.3,0,0.5-0.2,0.6
			c-0.1,0.2-0.3,0.2-0.4,0.4c0,0.2,0.1,0.2-0.3,0.3c-0.4,0.1-0.3,0.2-0.4,0.3c-0.1,0.1-0.1-0.1-0.2-0.1c-0.1-0.1-0.1,0.2-0.3,0.4
			c-0.2,0.2-0.5,0.2-0.7,0.3c-0.2,0.1-0.3,0.2-0.5,0.2c-0.2,0-0.3,0.4-0.4,0.9c0,0-0.2,0.4-0.1,0.6c0.1,0.2,0.2,0.5,0.1,0.7
			c-0.1,0.2-0.3,0.6-0.4,0.8c-0.1,0.2-0.2,1-0.2,1.4c0.1,0.4,0.2,0.6,0.4,0.8c0.2,0.2,0.4,0.3,0.7,0.3c0.3,0,0.2-0.1,0.4-0.3
			c0.2-0.1,0.1-0.1,0.4-0.2c0.2-0.1,0.3-0.2,0.5-0.4c0.2-0.2,0.2-0.3,0.3-0.6c0.1-0.3,0.2-0.5,0.2-0.6c0.1-0.1,0.2-0.3,0.3-0.5
			c0.1-0.2,0.2-0.1,0.2-0.3c0-0.2,0-0.3,0.1-0.4c0.1-0.1,0.1-0.2,0.1-0.3c0-0.1,0.1-0.4,0.2-0.7c0.1-0.3,0.1-0.4,0-0.6
			c0-0.2,0.1-0.1,0.3,0c0.1,0.1,0.2-0.1,0.3-0.3c0.1-0.2-0.2-0.2-0.3-0.2c-0.1,0-0.1,0,0-0.1c0.1-0.1,0.4-0.3,0.5-0.5
			c0.1-0.2,0.1,0.2,0.2,0.2c0.2,0,0.1-0.2,0.1-0.4C393.4,224.9,393.4,224.5,393.4,224.2z"/>
		<path class="st5" d="M363.3,211.8c0.1-0.1-0.1-0.2-0.1-0.3c-0.1,0-0.1-0.2-0.2-0.3c-0.1-0.1-0.2,0.2-0.2,0.4c0,0.2,0,0.2,0.1,0.4
			c0,0,0,0.1,0.1,0c0.1-0.1,0-0.1,0.1-0.2C363.2,211.8,363.2,211.9,363.3,211.8z"/>
		<path class="st5" d="M361.6,213.1c-0.1,0.1,0,0.4,0.1,0.5c0,0,0.2,0.1,0.2-0.1c0.1-0.1,0-0.3-0.1-0.4
			C361.8,213,361.7,213,361.6,213.1z"/>
		<path class="st5" d="M368.3,173.4c0.1-0.1,0.2-0.3,0.2-0.2c0,0-0.2-0.1-0.2-0.1c0-0.1-0.2-0.1-0.4-0.1c-0.2,0.1-0.4,0.4-0.5,0.5
			c-0.1,0.1-0.1,0-0.2,0c0-0.1-0.2,0-0.2,0c0,0-0.2,0.1-0.3,0.2c-0.1,0-0.2,0.1-0.3,0.2c-0.1,0.1,0.1,0,0.3-0.1
			c0.1-0.1,0.2-0.1,0.3,0c0.1,0,0,0.1-0.1,0.2c0,0.1-0.2,0.4-0.3,0.5c0,0.1-0.3,0.4-0.3,0.5c0,0.1,0.2,0.1,0.3,0.2
			c0,0,0,0.1-0.1,0.2c-0.1,0.1-0.3,0.2-0.4,0.4c-0.1,0.2-0.5,0.3-0.6,0.4c-0.1,0.1-0.4,0.6-0.6,0.9c-0.2,0.3-0.1,0.3-0.4,0.4
			c-0.2,0.1-0.4,0-0.5,0.1c-0.1,0.1,0.3,0.3,0.5,0.2c0.2,0,0.2-0.1,0.5-0.2c0.2-0.1,0.2,0,0.3,0.1c0.2,0.1,0.6,0.2,0.8,0.2
			c0.2,0,0.3,0,0.6,0c0,0,0.2-0.1,0.2-0.2c0-0.1-0.1-0.2,0-0.3c0.1-0.1,0.2-0.1,0.5-0.2c0.2-0.1,0.2-0.2,0.2-0.3
			c0-0.1,0.2-0.1,0.4-0.2c0.2-0.1,0.1-0.2,0-0.3c-0.1-0.1-0.2-0.1-0.3-0.2c-0.1-0.1-0.1-0.2-0.2-0.3c0-0.1,0.1-0.2,0.1-0.3
			c0-0.1-0.2,0.1-0.2,0c0-0.1,0.2-0.4,0.2-0.5c0-0.1-0.1-0.1-0.1-0.2c-0.1-0.1,0.3-0.3,0.3-0.4c0.1-0.1,0.3-0.5,0.2-0.6
			c0-0.1-0.1-0.1-0.2-0.1C368.1,173.6,368.1,173.5,368.3,173.4z"/>
		<path class="st5" d="M364.1,176.5c0.2,0,0.2,0.1,0.3,0c0.2,0,0.2,0,0.3,0c0,0,0.1,0,0.1,0c0,0,0.1-0.2,0.2-0.3
			c0.1-0.1,0.4-0.4,0.4-0.6c0.1-0.2,0.2-0.2,0.4-0.3c0.2-0.1,0.2-0.1,0.3-0.2c0.1-0.1,0-0.2,0-0.3c-0.1-0.1-0.2,0.1-0.3,0
			c-0.1,0,0-0.2,0-0.2c0-0.1-0.1,0-0.3,0c-0.2,0.1-0.2,0.2-0.3,0.4c-0.1,0.2-0.2,0.1-0.2,0c-0.1-0.1-0.1-0.1-0.3,0
			c-0.2,0.1,0,0.2-0.1,0.4c-0.1,0.2-0.2,0.3-0.4,0.6c-0.2,0.3-0.2-0.1-0.3-0.1c-0.1,0-0.3,0.4-0.3,0.5c0,0.1,0,0.2,0.1,0.3
			C363.9,176.7,363.9,176.5,364.1,176.5z"/>
		<path class="st5" d="M363.4,176.1c-0.1,0.1,0,0.2,0.1,0.2c0,0,0.2-0.2,0.2-0.4C363.7,175.8,363.6,176,363.4,176.1z"/>
		<path class="st5" d="M366.6,173.6c0,0,0.1-0.1,0.1-0.2c0-0.1-0.1,0-0.2,0.1C366.4,173.5,366.5,173.6,366.6,173.6z"/>
		<path class="st5" d="M366.9,173.4c0.1-0.1,0-0.1,0-0.1s-0.2,0.1-0.2,0.1C366.7,173.4,366.8,173.5,366.9,173.4z"/>
		<path class="st5" d="M367,173.3c0,0,0.2,0,0.3-0.1c0.1,0,0.2-0.2,0.3-0.4c0-0.2-0.1-0.1-0.2,0c-0.1,0-0.2,0.1-0.3,0.2
			C367.1,173.1,367.1,173.2,367,173.3C367,173.2,367,173.3,367,173.3z"/>
		<path class="st5" d="M368.9,172.7c-0.1,0-0.2,0.1-0.2,0.2C368.6,173,368.8,172.8,368.9,172.7C369,172.7,368.9,172.7,368.9,172.7z"
			/>
		<path class="st5" d="M369.7,172.1c0,0.1,0,0.2-0.1,0.4c-0.1,0.2-0.2,0.2-0.1,0.2c0,0,0.1-0.1,0.2-0.1c0.1-0.1,0.3-0.2,0.3-0.3
			c0.1-0.1,0-0.1,0-0.3C370.2,171.8,369.8,172,369.7,172.1z"/>
		<path class="st5" d="M387.4,167.9c0.1,0.1,0.3,0.1,0.5,0.1c0,0,0.2,0,0.3-0.1c0.1,0,0,0-0.2-0.1c-0.2,0-0.3-0.1-0.5-0.2
			C387.4,167.7,387.3,167.8,387.4,167.9z"/>
		<path class="st5" d="M386.8,167.5c-0.1,0-0.2-0.1-0.3-0.2c-0.1-0.1-0.2-0.3-0.2-0.4c-0.1-0.1-0.2,0-0.4,0c-0.2,0-0.3,0.1-0.4,0.2
			c-0.1,0.1,0.1,0.2,0,0.2c-0.1,0,0,0.1,0.1,0.2c0.1,0.1,0.2,0,0.3,0.1c0.1,0.1,0,0.2,0.1,0.2c0.1,0,0.2,0,0.3-0.1
			c0.1-0.1,0-0.2,0.1-0.1c0.1,0,0,0.2,0.2,0.2c0,0,0.3,0,0.5-0.1c0.2,0,0.1,0,0.1-0.1C387.2,167.6,387,167.6,386.8,167.5z"/>
		<path class="st5" d="M385.6,166.5c0.1,0.1,0,0.2-0.1,0.3c-0.1,0.1,0.3,0,0.4,0c0,0,0.3,0,0.4,0c0.1,0,0-0.1,0.1-0.2
			c0-0.1,0.2-0.1,0.4-0.1c0.2,0-0.1-0.1-0.1-0.2c-0.1-0.1,0.2-0.2,0.3-0.2c0.2-0.1,0-0.2-0.1-0.2c-0.1-0.1,0.1-0.1,0.3-0.1
			c0.2,0,0.2,0,0.2-0.1c0-0.1,0.1,0.1,0.3,0.1c0.2,0-0.1-0.1-0.1-0.2c-0.1-0.1-0.3,0-0.4,0c-0.1,0-0.2,0-0.3-0.1
			c-0.1-0.1-0.1,0-0.2,0.1c-0.1,0.1-0.1,0.2-0.2,0.2c0,0-0.3,0-0.4,0.1c-0.1,0.1,0.1,0.2,0,0.3c-0.1,0.1-0.2,0.1-0.3,0.1
			c-0.2,0-0.2,0-0.3,0.1C385.3,166.3,385.5,166.4,385.6,166.5z"/>
		<path class="st5" d="M369.4,168.8c0.1-0.2-0.4-0.1-0.5-0.1c-0.1,0-0.3,0.2-0.5,0.2c-0.2,0-0.2-0.1-0.3-0.1c-0.2,0-0.5,0.2-0.7,0.4
			c-0.2,0.2-0.7,0.6-0.6,0.6c0.1,0,0.3,0.1,0.5,0.2c0.2,0,0.2,0.1,0.4,0.1c0.2,0,0.2-0.1,0.4-0.2c0.1-0.1,0.2,0.1,0.5-0.1
			c0,0,0.3-0.2,0.5-0.3C369.2,169.3,369.3,169,369.4,168.8z"/>
		<path class="st5" d="M363,169.3c0.1-0.1,1-0.5,1.2-0.6c0.2-0.1,0.6-0.2,0.8-0.3c0.2-0.1,0.2-0.3,0.4-0.3c0.2-0.1,0.6-0.1,0.7-0.1
			c0.2-0.1,0.6-0.2,0.6-0.2s0.1,0.1,0.2,0c0.2-0.1,0.6-0.2,0.7-0.3c0.2-0.1,0.8-0.2,0.9-0.2c0.1,0,0.4-0.1,0.4,0
			c0,0.1,0.2,0.1,0.3,0.1c0.1,0,0.6-0.2,0.6-0.2l0.1,0.1c0.2-0.1,0.4-0.2,0.3-0.3c-0.1-0.1-0.1-0.1,0.1-0.2c0.1-0.1,0.5-0.2,0.5-0.1
			c-0.1,0.1,0,0.2,0.3,0c0.3-0.2,1.1-0.7,1.2-0.7c0.1,0,0,0.2,0.2,0.1c0.2-0.1,0.5-0.3,0.6-0.4c0.1-0.1,0.4-0.1,0.4-0.2
			c0-0.1,0.3-0.3,0.4-0.3c0.1,0,0.7-0.3,0.8-0.3c0.1,0,0.4-0.2,0.5-0.3c0.1-0.1,0.4-0.2,0.6-0.3c0.3-0.1,0.4-0.1,0.7-0.2
			c0.4-0.2,0.9-0.4,1.1-0.4c0.2,0,0.7,0,0.7-0.2c-0.1-0.1-0.5-0.2-0.8-0.4c-0.3-0.1-0.7,0-1.1-0.1c-0.4,0-0.1,0-0.7-0.1
			c-0.5-0.1-0.9,0-1.1,0.1c-0.2,0-0.9,0.2-1.1,0.3c-0.3,0.1-0.7,0.2-0.7,0.4c0,0.2-0.1,0.1-0.5,0.3c-0.4,0.1-1.6,0.6-1.8,0.7
			c-0.2,0.1-0.6,0.2-0.9,0.3c-0.3,0.1-1.2,0.4-1.7,0.7c-0.4,0.2-1,0.5-1.4,0.7c-0.4,0.2-0.7,0.3-1.2,0.6c-0.5,0.3-1.3,0.8-1.6,0.9
			c-0.3,0.2-0.7,0.9-0.9,1C362.9,169.1,362.9,169.3,363,169.3z"/>
		<path class="st5" d="M378.9,165.5c0.1-0.1,0,0.1,0.1,0.1c0.1,0,0.1,0.1-0.1,0.4c-0.1,0.2,0.1,0.2,0.4,0c0,0,0.1-0.2,0-0.3
			c0-0.1,0.3-0.2,0.4-0.3c0.2-0.1,0.5-0.1,0.6-0.3c0.2-0.1-1-0.1-1.1-0.1c-0.1,0,0,0.2,0,0.3c-0.1,0.1-0.1-0.1-0.2-0.1
			c-0.1,0-0.2,0.1-0.2-0.1c0-0.2-0.1-0.1-0.2-0.1c-0.1,0,0.1,0.2-0.1,0.4C378.4,165.7,378.7,165.6,378.9,165.5z"/>
		<path class="st5" d="M380.1,165.6c-0.2,0-0.3,0.1-0.4,0.3c0,0,0.2,0,0.3,0c0.2,0,0.2,0.1,0.5-0.1
			C380.7,165.5,380.3,165.6,380.1,165.6z"/>
		<path class="st5" d="M363.8,184.8c-0.1,0-0.3,0.2-0.2,0.3c0,0.1,0,0.1,0,0.3c0,0,0.1,0,0.1,0c0.1,0,0.2-0.2,0.1-0.4
			C363.8,184.9,363.9,184.8,363.8,184.8z"/>
		<path class="st5" d="M364.2,185.4c0,0,0.1,0.1,0.2,0c0.1,0,0.1-0.2,0-0.3C364.4,185,364.2,185.2,364.2,185.4z"/>
		<path class="st5" d="M364.7,184.6c0-0.1-0.2,0-0.4,0.2c-0.1,0.2-0.1,0.2,0,0.2c0,0,0.1,0,0.3,0
			C364.8,184.9,364.7,184.7,364.7,184.6z"/>
		<path class="st5" d="M365.1,184.8c0.2-0.1,0.2-0.1,0.2-0.2c0.1-0.1,0-0.2-0.1-0.3c-0.1-0.1-0.3,0.2-0.3,0.3
			C365,184.7,365,184.9,365.1,184.8z"/>
		<path class="st5" d="M367.6,184.2c-0.1,0-0.2,0.2-0.2,0.3c0,0,0.1,0,0.2-0.1C367.7,184.4,367.7,184.3,367.6,184.2z"/>
		<path class="st5" d="M370.1,188c-0.1,0-0.2,0.2-0.2,0.3c0,0,0.1,0.1,0.2-0.1C370.4,188.1,370.3,188,370.1,188z"/>
		<path class="st5" d="M394.7,205.8c-0.1,0-0.1,0.2,0,0.2c0,0,0.1-0.1,0.2-0.2C394.9,205.7,394.8,205.8,394.7,205.8z"/>
		<path class="st5" d="M395.9,205.3c-0.2,0-0.5,0.2-0.4,0.4c0,0,0,0.1,0.1,0.2c0.1,0.1,0.2,0,0.4,0c0.2-0.1,0.1-0.1,0.1-0.2
			C396.1,205.5,396,205.3,395.9,205.3z"/>
		<path class="st5" d="M421.2,205.3c0-0.1-0.2-0.7-0.2-0.9c-0.1-0.2,0-0.7,0-0.9c0-0.2-0.1-0.3-0.2-0.5c-0.1-0.2-0.2-0.3-0.3-0.5
			c-0.1-0.3-0.2-0.1-0.3-0.1c-0.1-0.1-0.2-0.5-0.2-0.7c0-0.2-0.2-0.5-0.3-0.7c-0.1-0.2-0.1,0-0.2,0.1c-0.1,0.1-0.1-0.3-0.1-0.5
			c0-0.3,0.1-0.5,0.1-0.7c0-0.2,0-0.4-0.1-0.5c-0.1-0.2,0-0.5-0.1-0.7c0-0.2-0.2-0.6-0.1-0.6c0.1-0.1,0.1,0.2,0.2,0.3
			c0.1,0.1,0.2-0.1,0.2-0.1c0,0.1,0.2,0.9,0.5,1.1c0.3,0.1,0.3,0,0.4,0.3c0.1,0.2,0,0.9,0.1,1.1c0.1,0.2,0.1-0.1,0.2-0.6
			c0.1-0.5,0.1-0.6,0-0.9c-0.1-0.3,0.1-0.4,0.2-0.7c0.1-0.3,0-1.2-0.1-1.7c-0.1-0.6-0.5-1.4-0.9-2.1c-0.4-0.7-0.5-0.9-0.7-1.2
			c-0.2-0.3-0.2-0.7-0.3-1c-0.1-0.3,0-0.9,0-1.1c0-0.3,0.2-0.3,0.3,0c0.1,0.2,0.2,0.8,0.2,1.2c0,0.4,0.2,0.6,0.4,0.6
			c0.2,0,0-0.4,0-0.8c0-0.4-0.4-1.1-0.5-1.3c-0.1-0.2,0.1-0.2,0.1-0.5c0-0.4,0-0.6-0.1-0.8c-0.1-0.3,0.1-0.1,0.1-0.3
			c0-0.2-0.1-1.2-0.2-1.5c0-0.3-0.5-1.4-0.8-2c-0.3-0.5-0.9-2.1-1.1-2.6c-0.2-0.4-0.4-1.1-0.5-1.2c-0.1-0.1-0.8-0.7-1-0.9
			c-0.2-0.2-0.6-0.9-0.8-1.6c-0.2-0.7-0.2-0.3-0.6-0.4c-0.4-0.1-0.1,0.2-0.4-0.1c-0.2-0.3,0-0.6,0.2-0.7c0.2-0.1,0.2-0.1,0.2-0.6
			c0-0.1,0.1-0.2,0.1-0.4c-5.4-7-12.9-11.7-21.1-13.9c-0.3,0-0.9-0.1-1.4-0.1c-0.5-0.1-0.1,0.2,0.2,0.4c0.3,0.2,1.7,0.2,2.1,0.4
			c0.4,0.2,0.2,0.4-0.1,0.3c-0.3,0-0.7,0-0.8,0.3c-0.1,0.2-0.1,0.4-0.4,0.5c-0.2,0.1-1.1-0.7-1.3-0.8c-0.2-0.1-0.7,0.2-1,0.2
			c-0.4,0,0.3,0.3,0,0.4c-0.3,0.1-0.1-0.1-0.2-0.2c-0.2,0-0.3,0.1-0.5,0c-0.2,0-0.2,0.1-0.2,0.3c-0.1,0.1,0.1,0.1,0.3,0.1
			c0.2,0.1,0,0.3-0.2,0.4c-0.2,0.1,0.1,0.2,0.3,0.3c0.2,0.1,0.5,0,0.6,0c0.1,0.1-0.2,0.1-0.4,0.2c-0.2,0.1,0.2,0.2,0.3,0.3
			c0.1,0.1,0.3,0.1,0.6,0.1c0.3,0.1,0.7,0.4,0.7,0.5c0,0.1-0.7-0.4-0.9-0.4c-0.2-0.1-0.4,0-0.6,0c-0.1-0.1-0.1-0.2-0.4-0.2
			c-0.3,0,0,0.2,0.1,0.3c0.1,0.1,0.5,0.2,0.5,0.4c0,0.2-0.3,0-0.5-0.1c-0.1-0.1-0.3-0.3-0.5-0.4c-0.1-0.1-0.3-0.1-0.3,0
			c0,0.1,0.3,0.3,0.3,0.4c0.1,0.1,0.3,0.3,0.5,0.4c0.2,0.2,0.5,0.4,0.7,0.5c0.2,0.1,0.4,0,0.7,0c0.3,0,0.5,0.2,0.7,0.3
			c0.2,0.1,0.3,0.1,0.3,0.3c-0.1,0.2-0.6-0.3-0.7-0.4c-0.1-0.1-0.4-0.1-0.7-0.1c-0.2,0,0.3,0.4,0.4,0.7c0,0.3-0.3,0.1-0.3-0.2
			c0-0.3-0.4-0.6-0.6-0.7c-0.2-0.1-0.4-0.2-0.5-0.3c-0.1-0.2-0.3-0.3-0.6-0.5c-0.3-0.2-0.4-0.4-0.5-0.4c-0.1,0-0.2,0-0.3-0.1
			c-0.1-0.1-0.3-0.2-0.5-0.1c-0.2,0.1,0.3,0.1,0.2,0.3c0,0.2,0,0.3,0,0.4c0,0.1,0,0.1,0.2,0.3c0.2,0.1,0.3,0.1,0.5,0.3
			c0.2,0.1,0.5,0.1,0.5,0.3c0,0.2,0,0.1-0.4,0.1c-0.4-0.1-0.3,0-0.6-0.1c-0.3,0-0.7,0-1,0.1c-0.3,0-0.2,0.1-0.1,0.2
			c0.2,0.1,0.2,0.2,0.1,0.3c0,0.2-0.3-0.1-0.5-0.1c-0.2,0-0.4,0.1-0.6,0.1c-0.2,0-0.2-0.1-0.3-0.2c-0.1-0.1-0.3,0.1-0.5,0.2
			c-0.1,0.1-0.3,0.1-0.6,0.2c-0.2,0.1-0.1-0.3-0.1-0.4c0-0.1-0.1,0.1-0.3,0c-0.2,0-0.3-0.1-0.3,0c0,0.1,0.2,0.1,0.2,0.2
			c0,0.2,0.1,0.2,0.2,0.4c0.1,0.2-0.1,0.2-0.4,0.2c-0.2,0-0.1-0.1-0.1-0.4c0-0.3-0.2-0.3-0.4-0.3c-0.2,0-0.2,0-0.4,0
			c-0.1,0-0.3-0.1-0.3,0c0,0.1,0.2,0.1,0.3,0.3c0.1,0.1,0,0.2,0.1,0.3c0.1,0.1,0.2,0.2,0.2,0.4c0,0.1-0.4,0.1-0.4,0
			c-0.1-0.1-0.2,0-0.3,0c-0.1,0-0.2,0-0.4,0c-0.2,0,0,0.1-0.2,0.3s-0.3,0.2-0.4,0.2c-0.2,0-0.2-0.1-0.4,0c-0.3,0.1-0.2,0.2-0.1,0.4
			c0.1,0.2,0.3,0.3,0.3,0.4c0,0.1-0.5,0-0.6-0.2c-0.1-0.2,0-0.4,0-0.7c0-0.3-0.2-0.3-0.3-0.5c-0.1-0.2,0.3,0,0.5,0.2
			c0.2,0.2,0.3,0.1,0.6,0.1c0.3,0.1,0.5-0.1,0.5-0.3c0.1-0.1-0.1-0.3-0.3-0.4c-0.2-0.1-0.1-0.1-0.2-0.2c-0.1-0.2-0.2-0.2-0.4-0.3
			c-0.2,0-0.5-0.1-0.7-0.1c-0.2,0-0.3,0.1-0.3,0c-0.1-0.1,0-0.2-0.1-0.2c-0.1,0-0.3,0-0.4,0.1c-0.1,0.1-0.2,0-0.2,0
			c0.1-0.1,0.3-0.1,0.3-0.3c0-0.1-0.2-0.1-0.4-0.1c-0.2,0-0.1,0-0.3-0.1c-0.1,0-0.1,0.1-0.3,0.2c-0.2,0.1-0.3,0-0.4,0
			c-0.1,0-0.1-0.2-0.3-0.1c-0.2,0-0.4,0-0.5,0.1c-0.1,0.1,0.2,0.1,0.1,0.2c-0.1,0.1-0.2,0-0.2,0c-0.1,0-0.3,0-0.4,0.1
			c-0.1,0.1-0.5,0.1-0.7,0.1c-0.2,0.1-0.4,0-0.5,0.1c-0.1,0.1,0.2,0.2,0.1,0.2c-0.1,0.1-0.3,0.2-0.4,0.2c-0.1,0,0.1-0.3,0.1-0.3
			c0-0.1-0.1,0-0.2,0.1c-0.1,0.1-0.3,0.2-0.4,0.3c-0.1,0.1,0.1,0.3-0.1,0.4c-0.1,0.2-0.1-0.2-0.3-0.1c-0.2,0.1-0.2,0.3-0.3,0.3
			c-0.1,0-0.2,0-0.4,0.2c-0.2,0.1,0.2,0.1,0.2,0.2c0,0.1-0.2,0.1-0.3,0.1c-0.1,0.1-0.2,0.1-0.3,0.2c-0.1,0.1-0.1,0.1-0.3,0.3
			c-0.2,0.1-0.2,0.2-0.2,0.4c-0.1,0.2-0.2,0.1-0.3,0.2c-0.1,0.1-0.3,0.1-0.4,0.2c-0.1,0-0.2-0.1-0.4,0c-0.2,0.1-0.5,0.1-0.7,0.3
			c-0.3,0.2-0.1,0.3,0.1,0.3c0.1,0,0.2,0.1,0.1,0.2c-0.1,0.1-0.3-0.1-0.4-0.1c-0.1,0-0.2,0.1-0.3,0.2c-0.1,0.1,0.1,0.3,0.1,0.5
			c0,0.2-0.1,0.1-0.2,0c-0.1,0-0.3,0.2-0.5,0.3c-0.2,0.1,0,0.1,0.1,0.4c0,0.3-0.3,0.3-0.3,0.4c0.1,0.1,0.5,0.1,0.6,0.1
			c0.1,0,0.2-0.1,0.4-0.2c0.2-0.1,0.2-0.1,0.3-0.2c0-0.1,0.1-0.3,0.3-0.3c0.1-0.1,0.3-0.1,0.4-0.2c0.1-0.1,0.2-0.2,0.2,0
			c0,0.2-0.1,0.5-0.2,0.8c-0.1,0.3,0,0.3,0,0.6c0,0.3-0.1,0.6-0.1,0.8c0,0.2,0.3,0,0.5-0.1c0.2-0.1,0.5-0.3,0.7-0.5
			c0.2-0.2,0.3-0.1,0.4-0.3c0-0.2,0.1-0.2,0.3-0.4c0.2-0.1,0.1-0.1,0.1-0.3c0.1-0.2,0.3-0.4,0.4-0.4c0.1,0,0.4-0.2,0.5-0.3
			c0.1-0.1,0-0.2-0.1-0.3c-0.1-0.1,0-0.2,0.1-0.4c0-0.1,0.2-0.6,0.2-0.7c0,0,0.4-0.2,0.5-0.3c0.1-0.1,0.4-0.1,0.5-0.1
			c0.1-0.1,0-0.1,0.4-0.2c0.4-0.1,0.2-0.2,0.2-0.3c0-0.1,0.1-0.2,0.2-0.3c0.1-0.1,0.2-0.1,0.2-0.2c0.1-0.1,0.1,0,0.2,0
			c0.1,0,0.5,0.1,0.5,0.2c0,0.1-0.2,0.1-0.3,0.2c-0.1,0.1-0.1,0.1-0.3,0.1c-0.2,0-0.3,0.1-0.3,0.2c-0.1,0.1-0.4,0.3-0.6,0.5
			c-0.2,0.2-0.2,0.2-0.1,0.3c0,0.1,0,0.2,0,0.4c0,0.2-0.2,0.3-0.3,0.4c-0.1,0.1,0,0.4,0.1,0.5c0.1,0.1,0.3,0.1,0.5,0.1
			c0.3-0.1,0.6-0.2,0.8-0.3c0.3-0.1,1,0,1.1,0.1c0.2,0,0.1,0.1,0,0.2c-0.1,0.1-0.6,0.2-0.8,0.2c-0.2,0-0.7-0.1-0.8-0.1
			c-0.1,0.1-0.4,0.1-0.5,0.1c-0.2,0.1-0.3,0.2-0.3,0.3c0,0.1,0.1,0.2,0.1,0.2c0,0,0.2,0,0.4,0c0.2,0,0.1,0,0,0.1
			c0,0.1-0.1,0.3-0.3,0.5c-0.2,0.2-0.2,0-0.3-0.1c-0.1,0-0.2-0.1-0.3-0.2c-0.1-0.1-0.1,0-0.2,0.1c-0.1,0.1-0.3,0.2-0.3,0.3
			c-0.1,0.1,0,0.3-0.3,0.4c-0.2,0.1-0.1,0.2-0.2,0.4c-0.1,0.1-0.3,0.2-0.4,0.4c-0.1,0.1-0.1,0.2-0.2,0.3c0,0.1-0.3,0.2-0.4,0.1
			c-0.1,0,0.1-0.1,0.1-0.2c0.1-0.1-0.1-0.1-0.3,0c-0.1,0-0.5,0.1-0.6,0.1c-0.1,0-0.6,0.1-0.7,0.1c-0.1,0-0.2,0.1-0.4,0.2
			c-0.1,0.1,0-0.2,0-0.3c0-0.1-0.2-0.1-0.3-0.1c-0.1,0-0.3,0-0.5,0c-0.1,0-0.3,0.1-0.4,0.1c-0.1,0-0.3-0.1-0.4-0.2
			c-0.1-0.1-0.1-0.4-0.1-0.5c0-0.1-0.1,0.1-0.2,0.1c-0.1,0.1-0.3,0.2-0.4,0.3c-0.1,0.1,0.2,0.4,0.1,0.5c-0.1,0.1-0.2,0.1-0.3,0.1
			c-0.2,0-0.4-0.1-0.5-0.1c-0.1-0.1-0.3,0.2-0.4,0.3c-0.1,0.1-0.4,0.2-0.5,0.2c-0.1,0-0.2,0-0.3,0c-0.1,0-0.1,0.1-0.2,0.3
			c-0.1,0.2-0.1,0.3-0.2,0.4c-0.1,0.1-0.1,0.1-0.2,0.1c-0.2-0.1-0.5,0.1-0.8,0.2c-0.3,0.1-0.5,0.3-0.6,0.4c-0.1,0.1-0.1,0.1-0.3,0.3
			c-0.1,0.2-0.2,0.1-0.5,0.1c-0.3,0-0.6-0.2-0.7-0.2c-0.1,0-0.2,0.3-0.3,0.4c-0.1,0.1-0.1,0-0.2,0c-0.1,0-0.1,0.1-0.2,0
			c-0.1-0.1-0.1-0.1-0.2-0.1c-0.1,0-0.3,0.1-0.3,0.2c0,0.1-0.2,0.2-0.3,0.3c-0.1,0.1-0.1,0.1,0.1,0.2c0.2,0.1,0.1,0.1,0.2,0.2
			c0.1,0.1,0.1,0,0.2,0c0.1,0,0.1,0,0.1,0.2c0.1,0.1,0.1,0.1,0.1,0.2c0,0.1-0.1,0.2-0.1,0.4c0,0.2,0,0.3,0,0.5
			c0,0.2-0.1,0.2-0.1,0.3c0.1,0.1,0.1,0.2,0,0.3c-0.1,0.1-0.1,0-0.1-0.1c0-0.1-0.1-0.1-0.1-0.1c-0.1,0.1-0.2,0.1-0.2,0.2
			c-0.1,0.1,0,0.2,0,0.2c0,0.1-0.2,0.1-0.3,0.2c-0.1,0.1-0.1,0.4-0.6,0.3c-0.5-0.1-0.3-0.2-0.5-0.2c-0.2,0-0.3-0.1-0.4-0.2
			c-0.1-0.2-0.1-0.2-0.3-0.2c-0.2,0-0.4-0.2-0.6-0.1c-0.2,0.1-0.2,0.1-0.3,0c-0.1-0.1-0.2,0-0.3,0.2c-0.1,0.2-0.2,0.5-0.2,0.8
			c-0.1,0.3-0.4,0.9-0.8,1.5c-0.4,0.5-0.6,0.8-0.6,1.1c0,0.3-0.1,0.5-0.2,0.7c-0.1,0.2,0.1,0.2,0.3,0.2c0.2,0,0.3,0,0.4,0.1
			c0.1,0.1,0,0.6,0.1,0.8c0.1,0.2,0.2-0.1,0.4-0.2c0.1-0.1,0.2-0.1,0.4-0.1c0.2,0,0.3,0.2,0.7,0.2c0.3,0,0.7,0,0.8-0.1
			c0.2-0.1,0.3-0.3,0.4-0.4c0.1-0.1,0.7-0.4,0.8-0.5c0.1-0.1,0.2-0.7,0.3-0.9c0.1-0.3,0.3-0.3,0.5-0.4c0.2-0.1,0.6-0.2,0.8-0.2
			c0.2,0,0.6-0.4,0.6-0.6c0-0.2,0.1-0.3,0.4-0.4c0.3-0.1,0.4,0,0.8,0c0.3,0,0.4,0.1,0.6,0c0.2-0.1,0.3-0.1,0.5-0.1
			c0.2,0,0.5-0.2,0.6-0.2c0.1,0,0.2,0.1,0.3,0.1c0.1,0,0-0.2,0.1-0.3c0.1-0.1,0.1,0.1,0.2,0.3c0.1,0.2,0.2,0.4,0.3,0.5
			c0.1,0.2,0.3,0.3,0.5,0.6c0.1,0.3,0,0.3,0.2,0.4c0.2,0.1,0.3,0.1,0.5,0.4c0.2,0.3,0.6,0.7,0.6,1c0,0.3-0.3,0.8-0.5,1
			c-0.1,0.1,0.1,0.2,0.3,0.1c0.2-0.1,0.4-0.1,0.5-0.3c0.1-0.2,0.1-0.4,0.1-0.4c0.1-0.1,0.3-0.2,0.3-0.4c0-0.2-0.2-0.1-0.2-0.3
			c-0.1-0.1,0.2-0.4,0.3-0.4c0.1,0,0.3,0.3,0.4,0.4c0.1,0.2,0.4-0.1,0.3-0.2c0-0.1-0.2-0.4-0.4-0.5c-0.2-0.1-0.4-0.1-0.5-0.3
			c-0.1-0.2-0.2-0.4-0.3-0.5c-0.1-0.1-0.6-0.3-0.7-0.4c-0.1-0.1,0-0.7,0-0.9c0-0.1-0.3-0.1-0.5-0.2c-0.2-0.1-0.1-0.2,0-0.3
			c0.1,0,0.2-0.3,0.1-0.4c-0.1-0.1,0.1-0.1,0.3,0c0.2,0.1,0.1,0.1,0,0.3c0,0.1,0.1,0.3,0.2,0.3c0.1,0,0.2-0.2,0.2-0.3
			c0-0.1,0.1,0,0.3,0.2c0.2,0.2,0.1,0.2,0.2,0.5c0.1,0.2-0.1,0.3-0.2,0.5c-0.1,0.2,0.1,0.1,0.3,0.2c0.2,0.1,0.1,0.1,0.3,0.2
			c0.3,0.1,0.4,0.2,0.5,0.2c0.1,0,0.4,0.2,0.7,0.3c0.2,0.2,0.1,0.3,0,0.5c-0.1,0.2,0,0.5,0,0.9c0,0.4,0.1,0.1,0.3,0.4
			c0.2,0.3,0.2,0.4,0.3,0.5c0.1,0.2,0.1,0.2,0.3,0.3c0.1,0,0.5,0,0.4,0.1c0,0.1-0.3,0-0.5,0.1c-0.2,0.1-0.2,0.1-0.2,0.4
			c0,0.2,0.1,0.1,0.2,0.4c0.1,0.3,0,0.3,0.1,0.3c0.1,0,0.1-0.1,0.2,0.1c0.1,0.2,0.1,0.1,0.3,0c0.2-0.1,0.3-0.1,0.3-0.1
			c0-0.1,0-0.2,0.2-0.1c0.1,0.1,0.2-0.1,0.2-0.3c0-0.2,0-0.3-0.1-0.2c-0.1,0-0.2,0.3-0.4,0.2c-0.2-0.1,0.3-0.2,0.5-0.3
			c0.1-0.1,0.1-0.1,0.3-0.1c0.2,0,0.3,0,0.2-0.3c-0.1-0.2-0.3-0.3-0.7-0.8c-0.4-0.5,0.1-0.5,0.5-0.7c0.4-0.2,1.2-0.3,1.3-0.2
			c0.1,0,0.1,0.3-0.1,0.4c-0.1,0.1-0.2,0.3-0.2,0.4c0,0.1,0.3,0.1,0.3,0.1c0.1,0,0.2,0,0.3,0.3c0.1,0.3-0.2,0.4-0.3,0.5
			c-0.1,0-0.1,0.4-0.2,0.5c0,0.1,0.5,0,0.6,0c0.1,0,0.1,0.2,0.2,0.4c0.1,0.2,0.1,0.2,0.2,0.4c0.1,0.2-0.2,0.1,0.1,0.2
			c0.3,0.1,0.3,0,0.6,0c0.2,0,0.9,0.2,1,0.1c0.2-0.1,0.3-0.3,0.5-0.3c0.2,0,0.4,0.4,0.7,0.5c0.3,0.1,0.6-0.1,0.7-0.2
			c0.1-0.1,0.2-0.1,0.5-0.1c0.3,0,0.4,0,0.4-0.1c0-0.1,0.2-0.3,0.3,0c0,0.3-0.1,0.2-0.2,0.4c-0.1,0.2,0,0.3,0,0.5
			c0.1,0.2,0,0.5,0,0.7c0,0.2-0.1,0.3-0.1,0.4c0,0.2-0.1,0.1-0.2,0.3c-0.1,0.2-0.1,0.4-0.1,0.6c0.1,0.3-0.2,0.5-0.4,0.7
			c-0.2,0.2-0.3,0.5-0.5,0.5c-0.2,0-0.6-0.1-0.7-0.2c-0.1-0.1-0.4-0.5-0.6-0.4c-0.2,0-1.2,0.3-1.6,0.4c-0.4,0.1-1-0.2-1.2-0.3
			c-0.2-0.2-0.6-0.1-0.8,0c-0.2,0-0.3-0.2-0.6-0.4c-0.3-0.2-0.5,0-0.8-0.1c-0.3,0-0.3-0.3-0.4-0.5c-0.1-0.1-0.8-0.2-1.2-0.1
			c-0.4,0-0.4,0-0.4,0.2c0,0.2-0.1,0.7-0.2,1c-0.1,0.2-0.6,0.3-0.7,0.4c-0.1,0-0.6-0.3-0.7-0.3c-0.1,0-0.4,0-0.5-0.1
			c-0.1-0.1-0.2-0.1-0.5-0.2c-0.3-0.1-0.3-0.4-0.3-0.7c0-0.3-0.3-0.4-0.7-0.6c-0.4-0.2-0.8,0-0.9,0.1c-0.1,0.1-0.5-0.1-0.9-0.6
			c-0.3-0.5,0.2-0.6,0.2-0.7c0-0.2,0.2-0.3,0.5-0.5c0.2-0.2,0-0.4-0.2-0.6c-0.2-0.2,0.1-0.4,0.3-0.7c0.2-0.3-0.2-0.2-0.3-0.2
			c-0.1,0,0.1-0.3,0-0.3c-0.1-0.1-0.3,0-0.3,0.2c0,0.1-0.3,0.2-0.5,0.3c-0.2,0.1-0.4,0.3-0.5,0.1c-0.1-0.1-0.1-0.2-0.4-0.3
			c-0.3-0.1-0.6,0.1-0.8,0.2c-0.2,0.1-0.2,0-0.3-0.1c-0.1-0.1-0.2-0.2-0.6-0.2c-0.4-0.1-0.9,0-1.3,0.1c-0.4,0.1-1.2,0.3-1.5,0.5
			c-0.3,0.1-0.8,0-1.2-0.1c-0.4-0.1-0.5-0.3-0.6-0.6c-0.1-0.2-0.1-0.1-0.3,0.1c-0.2,0.2-0.2,0.2-0.4,0.5c-0.2,0.2-0.3,0.3-0.5,0.4
			c-0.2,0.1-0.4,0.2-0.5,0.3c-0.1,0.1-0.4,0.2-0.6,0.3c-0.2,0.1-0.1,0.4-0.3,0.6c-0.2,0.2-0.4,0.4-0.5,0.7c-0.1,0.3-0.1,0.3,0,0.5
			c0.1,0.2-0.1,0.2-0.2,0.2c-0.1,0-0.2,0-0.4,0.3c-0.2,0.2-0.3,0.3-0.6,0.3c-0.2,0-0.1,0.2-0.4,0.3c-0.3,0.1-0.4,0.1-0.6,0.3
			c0,0-0.4,0.4-0.7,0.7c-0.3,0.3-0.7,0.9-0.9,1.2c-0.2,0.3-0.5,0.7-0.5,0.8c-0.1,0.1-0.3,0.5-0.6,0.8c-0.2,0.3-0.4,0.3-0.4,0.5
			c0,0.2,0.2,0.8,0.2,0.9c0,0.1-0.2,0.5-0.2,0.7c0,0.2-0.1,0.4-0.2,0.7c-0.1,0.3-0.2,0.4-0.2,0.6c0,0.2-0.1,0.4-0.2,0.5
			c-0.2,0.1-0.1,0.5-0.2,0.7c-0.1,0.2-0.3,0-0.4,0.2c-0.1,0.2,0,0.4,0,0.7c0,0.2-0.1,0.6-0.1,0.7c0,0.1,0.1,0.4,0.1,0.8
			c0,0.4,0.2,0.5,0.3,0.6c0.1,0.1,0.1,0.4,0.1,0.6c0,0.2,0.1,0.4,0.1,0.7c0,0.3,0.3,0.3,0.4,0.5c0.1,0.3,0,0.7,0,0.9
			c0,0.2,0.1,0.7,0.1,1c0,0.3,0.4,0.5,0.7,0.9c0.3,0.4,0.6,0.8,0.9,1.4c0.4,0.6,0.7,0.6,1,0.6c0.3,0.1,0.4-0.2,0.6-0.3
			c0.2-0.1,0.1,0.1,0.4,0.2c0.3,0.1,0.5,0.1,0.6,0.1c0.2,0,0.2-0.1,0.4-0.1c0.2,0,0.2,0.2,0.3,0.5c0.1,0.2,0.3,0.1,0.7,0.2
			c0.4,0.1,0.6,0,0.8-0.1c0.2-0.1,1-0.4,1-0.4c0.1,0,0.3-0.1,0.6-0.1c0.2,0,0.2,0.1,0.2,0.3c0.1,0.2,0.2,0,0.4,0
			c0.2,0,0.2,0,0.4,0.2c0.2,0.2,0.4,0.7,0.5,1c0.1,0.3,0.2,0.4,0.4,0.5c0.2,0.1,0.5-0.1,0.9-0.1c0.3,0,0.6-0.1,0.8,0.1
			c0.2,0.2,0.3,0.7,0.3,0.8c0.1,0.1,0.4,0,0.4,0.2c0.1,0.2-0.1,0.5-0.2,0.7c-0.1,0.2,0,0.5,0,0.7c0,0.2,0,0.5,0,0.7
			c0,0.2,0,0.3-0.3,0.4c-0.3,0.1-0.2,0.2-0.1,0.3c0.1,0.2,0.3,0.3,0.3,0.6c0.1,0.3-0.1,0.2-0.1,0.4c0.1,0.1,0.1,0.1,0.3,0.1
			c0.2,0,0.3,0.2,0.2,0.4c-0.1,0.2,0.2,0.3,0.3,0.5c0.1,0.2,0.3,0.2,0.6,0.3c0.3,0.1,0.5,0.3,0.6,0.6c0.1,0.3,0,0.3,0.1,0.5
			c0.1,0.2,0,0.4,0,0.5c0,0.1,0.2,0.2,0.3,0.4c0.2,0.2,0.1,0.2,0.1,0.4c0,0.2,0.1,0.1,0.2,0.3c0.1,0.1,0.2,0.4,0.1,0.6
			c-0.1,0.1-0.1,0.4,0,0.5c0.1,0.1,0.2,0.1,0.3,0.3c0.1,0.2,0.4,1.1,0.4,1.2c0.1,0.2,0.1,0.4-0.1,0.5c-0.1,0.1-0.5,0.3-0.6,0.6
			c-0.1,0.3,0,0.4,0.1,0.6c0.1,0.2-0.1,0.2-0.2,0.5c-0.1,0.3-0.1,0.3-0.1,0.5c0,0.3,0,0.3,0.1,0.9c0.2,0.5,0.4,0.4,0.6,0.7
			c0.2,0.2,0.1,0.4,0.2,0.5c0.1,0.2,0.5,0.5,1,1.1c0.4,0.5,0.3,0.5,0.3,0.6c0,0.2,0,0.2,0.2,0.6c0.2,0.4,0.6,0.7,0.5,1.1
			c-0.1,0.4,0.1,0.3,0.3,0.6c0.1,0.3,0.7,0.7,1.1,1c0.4,0.3,0.5,0.5,0.9,1c0.4,0.6,0.7,0.7,0.8,0.8c0.1,0.1,0.1,0.2-0.1,0.2
			c-0.1,0-0.2,0.1-0.1,0.2c0.1,0.1,0.2,0.3,0.3,0.5c0.1,0.2,0.3,0.1,0.5,0.2c0.2,0.1,0.4,0.2,0.7,0.2c0.2,0,0.7-0.1,1-0.1
			c0.3,0,0.5,0.2,0.9,0.2c0.4,0,0.4,0,0.9,0c0.5,0.1,1.7-0.2,1.9-0.4c0.2-0.2,0.6-0.6,1-0.8c0.4-0.2,1-0.5,1.2-0.6
			c0.2-0.1,0.1-0.3,0.1-0.5c0-0.2,0.2-0.3,0.3-0.6c0.1-0.3,0.2-0.3,0.1-0.6c-0.1-0.3,0.2-0.2,0.5-0.4c0.3-0.2,1-0.4,1.2-0.5
			c0.2-0.1,0.2-0.1,0.1-0.3c-0.1-0.2,0.1-0.7,0.1-0.9c0-0.3,0-0.4-0.1-0.3c-0.1,0-0.2,0-0.3-0.4c-0.1-0.4-0.2-0.5-0.2-0.7
			c0.1-0.2,0.8-0.3,1-0.4c0.2-0.1,0.3-0.2,0.5-0.4c0.2-0.2,0.4-0.4,0.6-0.5c0.1-0.1,0.3-0.1,0.6-0.3c0.3-0.2,0.4-0.3,0.6-0.4
			c0.1-0.1,0.1,0.1,0.3,0c0.2-0.1,0.6-0.4,0.9-0.6c0.3-0.2,0.3-0.6,0-0.8c-0.2-0.2-0.2-0.3-0.2-0.6c0-0.3,0-0.3-0.1-0.3
			c-0.1,0-0.1-0.1-0.1-0.3c0.1-0.2,0-0.4,0-0.5c-0.1-0.2-0.1-0.3-0.1-0.6c0-0.2-0.2-0.4-0.3-0.5c-0.2-0.1-0.3-0.3-0.3-0.5
			c0-0.2-0.3-0.1-0.4-0.3c-0.1-0.2,0-0.7,0.1-0.9c0.1-0.2-0.1-0.4-0.2-0.5c-0.2-0.1-0.1-0.5,0.1-0.9c0.2-0.4,0.4-0.5,0.7-0.6
			c0.2-0.2,0.5-0.6,0.7-0.7c0.2-0.1,0.3-0.4,0.3-0.7c0-0.3,0.2-0.2,0.4-0.3c0.2-0.1,0.2-0.3,0.2-0.5c0-0.2,0.1-0.2,0.3-0.3
			c0.2-0.1,0.6-0.5,0.7-0.7c0.1-0.2,0.6-0.5,1-0.7c0.4-0.2,0.5-0.5,0.6-0.7c0-0.2,0.2-0.4,0.6-0.5c0.4-0.1,0.8-0.4,1-0.7
			c0.2-0.3,0.4-0.8,0.7-1.2c0.2-0.4,0.6-0.9,0.5-1.3c-0.1-0.4,0.2-0.7,0.5-0.9c0.3-0.2,0.1-0.4,0.2-0.8c0.1-0.4,0.4-0.2,0.5-0.4
			c0.1-0.2-0.1-0.5-0.1-0.6c0-0.1,0.4-0.3,0.5-0.4c0.1-0.1,0-0.3-0.2-0.3c-0.1-0.1-0.1-0.3-0.2-0.5c-0.1-0.3-0.3-0.3-0.5-0.1
			c-0.2,0.1-0.4,0.2-0.6,0.3c-0.2,0.1-0.3,0.1-0.4,0.2c-0.1,0.1-0.6,0.1-1.3,0.2c-0.7,0.1-1.7,0.1-2.2,0.2c-0.5,0.1-0.7-0.1-0.9-0.3
			c-0.2-0.2-0.1-0.5-0.1-0.8c0-0.3-0.2-0.4-0.4-0.4c-0.2,0-0.3-0.2-0.5-0.6c-0.2-0.4-0.4-0.5-0.7-0.7c-0.3-0.1-0.9-0.1-1.1-0.2
			c-0.2-0.1-0.1-0.3-0.2-0.5c-0.1-0.2-0.2-0.8-0.3-1.2c-0.1-0.4-0.4-0.7-0.7-0.7c-0.3-0.1-0.3-0.5-0.3-0.9c0-0.4,0.1-0.7,0-0.8
			c0-0.1-0.1-0.3,0-0.4c0.1-0.1-0.1-0.3-0.3-0.3c-0.1,0-0.1-0.5-0.1-0.6c-0.1-0.2-0.3-0.3-0.5-0.4c-0.2-0.1-0.5-0.1-0.6-0.3
			c-0.1-0.2,0.2-0.3,0.3-0.3c0.1,0-0.3-0.2-0.4-0.4c-0.2-0.2-0.2-0.2-0.3-0.3c-0.1-0.1-0.1-0.2-0.1-0.3c0-0.2,0-0.2-0.1-0.4
			c-0.1-0.2,0-0.3-0.1-0.6c-0.1-0.3-0.2-0.4-0.2-0.4c-0.1-0.1-0.1-0.3-0.2-0.6c-0.1-0.3-0.2-0.4-0.3-0.4c-0.1-0.1-0.3-0.5-0.4-0.7
			c-0.1-0.2-0.1-0.3,0.1-0.2c0.1,0.1,0.2,0.1,0.5,0.3c0.3,0.1,0.1,0.2,0.3,0.5c0.1,0.3,0.3,0.2,0.4,0.1c0.1-0.1,0-0.6,0.1-0.8
			c0.1-0.2,0.3-0.2,0.3,0c0,0.2-0.2,0.3-0.1,0.6c0.1,0.3,0.4,0.5,0.7,0.8c0.3,0.4,0.8,0.6,1,1.2c0.2,0.5,0,0.8,0.1,1
			c0.1,0.2,0.5,0.1,0.8,0.2c0.3,0.2,0.2,0.3,0.2,0.4c0.1,0.2,0.3,0.2,0.4,0.5c0.1,0.2-0.2,0.8-0.1,1.2c0.1,0.4,0.4,0.7,0.8,0.9
			c0.4,0.3,0.9,1,1,1.2c0.1,0.2,0.4,0.5,0.5,0.9c0.1,0.4,0.6,0.9,0.7,1.1c0.1,0.2-0.2,0.1-0.3,0.1c-0.1,0-0.2,0.4-0.1,0.7
			c0.1,0.2,0.3,0.4,0.5,0.7c0.2,0.3,0,0.6,0.2,0.9c0.2,0.3,0.4,0.2,0.8,0c0.3-0.2,0.6-0.4,0.7-0.5c0.2-0.1,0.6,0,0.9-0.2
			c0.3-0.1,0.6-0.4,0.9-0.4c0.3,0,0.4-0.2,0.7-0.4c0.3-0.2,0.6-0.4,0.9-0.5c0.4-0.2,0.8-0.3,1-0.3c0.2-0.1,0.3-0.2,0.4-0.6
			c0.1-0.3,0.2-0.2,0.4-0.3c0.2-0.1,0.2-0.1,0.3-0.2c0.1,0,0.2-0.1,0.5-0.3c0.3-0.2,0.6-0.1,0.8-0.3c0.2-0.1,0.1-0.3,0.5-0.4
			c0.4-0.1,0.3-0.1,0.2-0.4c0-0.3,0-0.3,0.2-0.5c0.2-0.2,0.5,0.1,0.7,0.1c0.2,0,0.1-0.1,0.1-0.4c0-0.3-0.2-0.7-0.4-0.9
			c-0.1-0.2-0.1-0.3,0.1-0.4c0.2-0.1,0.2,0.1,0.4,0.1c0.2,0,0.1-0.4,0-0.7c-0.1-0.3,0.2-0.4,0.3-0.7c0.1-0.3,0-0.3-0.2-0.6
			c-0.2-0.3-0.4-0.6-0.6-0.6c-0.2,0-1.2-0.2-1.3-0.3c-0.1-0.1-0.2-0.7-0.3-1.2c-0.1-0.5-0.4-0.3-0.6-0.2c-0.2,0.1-0.3,0.7-0.6,1.2
			c-0.3,0.5-0.7,0.1-0.9,0.2c-0.3,0.1-0.8,0.2-0.9,0c-0.2-0.2,0.1-0.3,0.1-0.6c0-0.3-0.2-0.4-0.5-0.2c-0.2,0.1-0.3,0.4-0.4,0.4
			c-0.1,0-0.1-0.4,0.1-0.5c0.2-0.1,0.1-0.2,0-0.4c-0.1-0.2-0.2,0-0.4-0.1c-0.2-0.1,0.1-0.1,0-0.3c-0.1-0.2-0.2-0.2-0.4-0.2
			c-0.2,0-0.2-0.1-0.3-0.5c-0.2-0.3-0.1-0.2-0.4-0.5c-0.3-0.2-0.3-0.4-0.5-0.6c-0.1-0.3-0.1-0.3,0-0.3c0.1,0,0.4-0.1,0.3-0.2
			c0-0.1,0.1-0.4,0.3-0.3c0.2,0.1,0,0.3,0.1,0.4c0.1,0.1,0.4-0.2,0.6-0.1c0.2,0.1,0.2,0.4,0.3,0.8c0.2,0.3,0.3,0.7,0.4,0.9
			c0.1,0.2,0.4,0.1,0.6,0.2c0.3,0.1,0.4,0.4,0.7,0.5c0.3,0.1,0.7,0,1,0c0.3,0,0.5-0.4,0.7-0.5c0.2,0,0.5,0.2,0.6,0.6
			c0.1,0.3,0.5,0.3,0.8,0.4c0.3,0.1,0.4,0,0.7,0.1c0.3,0.1,0.9,0.2,1.3,0.1c0.4,0,0.3-0.2,0.6-0.3c0.2-0.1,0.6-0.2,0.9-0.1
			c0.3,0,0.4,0,0.7-0.1c0.3-0.1,0.8-0.3,0.9-0.2c0.2,0,0.3,0.3,0.4,0.4c0.1,0.1,0.2,0.1,0.2,0.1c0,0.1,0.3,0.4,0.5,0.5
			c0.2,0.1,0.4,0.2,0.6,0.3c0.2,0.1,0.1,0.1,0.3,0.2c0.2,0.1,0.5-0.2,0.6-0.1c0.1,0-0.1,0.2-0.3,0.5c-0.2,0.3-0.1,0.3,0,0.4
			c0.1,0.1,0.4,0.1,0.5,0.2c0.1,0.1,0.1,0.2,0.3,0.3c0.2,0.1,0.2-0.2,0.3-0.4c0.1-0.2,0.2-0.1,0.3-0.3c0.1-0.2-0.1-0.4-0.2-0.6
			c-0.1-0.1,0.1-0.1,0.2-0.1c0.1,0,0.1,0.4,0.1,0.5c0.1,0.1-0.1,0.3-0.1,0.4c0,0.1,0.2,0.3,0.2,0.6c0.1,0.3,0.2,0.9,0.3,1.4
			c0.1,0.6,0.3,0.8,0.4,0.9c0.1,0.2,0.1,0.4,0.2,0.6c0.1,0.2,0.3,0.3,0.4,0.6c0.1,0.3,0.4,0.5,0.6,0.8c0.1,0.3,0.2,0.5,0.3,0.8
			c0.1,0.3,0.4,0.7,0.6,1c0.2,0.3,0.5,0.7,0.6,0.9c0.1,0.2,0.3,0.5,0.5,0.8c0.2,0.3,0.4,0.1,0.5,0c0.1-0.1,0-0.3,0.2-0.6
			c0.1-0.3,0.2-0.1,0.2-0.2c0.1-0.2,0.3-0.3,0.2-0.4c-0.1-0.2-0.1-0.4,0.1-0.6c0.2-0.2,0.2-0.1,0.2-0.3c0-0.2-0.1-0.4-0.2-0.6
			c-0.1-0.2,0.2-0.7,0.2-0.8c0-0.1,0-0.4-0.1-0.6c0-0.2,0-0.4-0.1-0.5c-0.1-0.2-0.1-0.2-0.1-0.4c0-0.3-0.1-0.5-0.1-0.6
			c0-0.1,0.2-0.4,0.4-0.6c0.1-0.3,0.2-0.6,0.2-0.7c0-0.2,0.2-0.2,0.3-0.2c0.1-0.1,0.1-0.3,0.1-0.4c0-0.2,0.3-0.5,0.3-0.7
			c0-0.2,0.1-0.4,0.2-0.5c0.1-0.2,0.2-0.3,0.1-0.4c-0.1-0.1-0.1-0.2,0-0.2c0.1,0,0.2,0.1,0.2-0.1c0-0.2,0.1-0.2,0.1-0.5
			c0-0.2,0-0.4,0-0.7c0-0.3,0.2-0.3,0.3-0.4c0.1,0,0.1-0.1,0.2-0.3c0.1-0.2,0.2-0.1,0.2-0.2c0.1-0.1,0.3-0.3,0.5-0.5
			c0.2-0.1,0.2,0.1,0.2,0.3c0.1,0.2,0.1-0.1,0.3,0c0.2,0.1,0.4,0.5,0.5,0.7c0.1,0.1,0.1-0.1,0.3-0.1c0.1,0.1,0.1,0.3,0.2,0.5
			c0.1,0.2,0.2,0.2,0.3,0.4c0.1,0.2,0.1,0.1,0.2,0.1c0.1,0,0.2,0.3,0.3,0.6c0.1,0.2,0.1,1,0.2,1.3c0.1,0.3,0.2,0.4,0.4,0.4
			c0.2-0.1,0.1-0.4,0.1-0.6c0-0.2,0.2-0.3,0.1-0.5c0-0.1,0.1-0.4,0.2-0.2c0.1,0.2,0.3,1,0.4,1.2c0.1,0.2,0.4,0.5,0.4,0.8
			c0,0.4,0.1,0.7,0.3,0.9c0.2,0.2,0.2,0.4,0.3,0.9c0.1,0.5,0,0.8-0.1,0.9c-0.1,0.1-0.2,0.3-0.1,0.5c0.1,0.2,0.4,0.6,0.5,0.9
			c0.1,0.3,0.3,0.3,0.5,0.6c0.2,0.3,0.1,0.9,0.2,1.1c0.1,0.2,0.4,1.2,0.7,1.5C421.3,206.1,421.2,205.5,421.2,205.3z M378.1,185.1
			c-0.3,0.1-0.5,0.1-0.8,0.1c-0.3,0-0.4,0-0.4,0c-0.1,0,0-0.2,0.3-0.2c0.2,0,0.3,0,0.5-0.2c0.2-0.2,0.3-0.1,0.4-0.2
			c0.1-0.1,0.2-0.1,0.1,0c-0.1,0.1-0.1,0.1,0,0.2C378.3,185,378.4,185,378.1,185.1z M385.4,184.3c-0.1,0.2-0.4,0.4-0.6,0.3
			c-0.2,0-0.2-0.2-0.5-0.1c-0.3,0.1-0.5,0.2-0.8,0.1c-0.3-0.1-0.5-0.2-0.8-0.4c-0.3-0.1-1-0.2-1.2-0.3c-0.2,0-0.7-0.1-0.9,0
			c-0.2,0-0.3,0-0.5,0.2c-0.1,0.2-0.4,0.2-0.8,0.3c-0.4,0-0.7,0.1-0.8,0.1c-0.1,0-0.2,0-0.2-0.1c0-0.2,0-0.2-0.1-0.3
			c-0.1,0-0.1-0.1-0.1-0.1c0-0.2,0.2-0.5,0.1-0.6c0-0.1,0.3-0.6,0.4-0.8c0.1-0.2,0.4-0.6,0.5-0.7c0.1-0.1,0.3-0.2,0.5-0.3
			c0.2-0.1,0.2-0.2,0.3-0.4c0.1-0.2,0.3-0.3,0.5-0.3c0.2-0.1,0.5,0.1,0.6,0.2c0.1,0.1,0.1,0.2,0,0.3c-0.1,0.1-0.3,0.2-0.1,0.3
			c0.2,0.1,0.4,0,0.4,0c0.1,0,0.1,0.2,0.1,0.3c0,0.1,0,0.3,0.2,0.2c0.2-0.1,0.3-0.2,0.6-0.2c0.2,0,0.6,0.1,0.6-0.1
			c0-0.1,0-0.3-0.1-0.3c-0.1,0-0.4,0.1-0.5,0c-0.1-0.1-0.2-0.1-0.3-0.1c-0.2,0-0.2-0.3,0-0.4c0.1-0.1,0.4,0.1,0.6,0
			c0.2-0.1,0.4-0.2,0.4-0.2c0.1,0,0.3,0,0.5-0.2c0.2-0.1,0.5-0.2,0.6-0.1c0.1,0.1,0.2,0.2,0.1,0.2c-0.1,0-0.3,0.1-0.5,0.2
			c-0.1,0.1-0.2,0.1-0.1,0.2c0.1,0.1,0.1,0.2,0.1,0.2c-0.1,0,0,0.2,0,0.2s-0.1,0.1-0.2,0c-0.1,0-0.2-0.1-0.2,0
			c-0.1,0.1-0.2,0.2,0,0.3c0.2,0,0.6,0.1,0.9,0.4c0.3,0.2,0.4,0.4,0.5,0.6c0.1,0.2,0.5,0.1,0.8,0.4
			C385.3,183.7,385.5,184.1,385.4,184.3z M393.2,187.4c0,0.1-0.2,0.2-0.3,0.1c-0.1-0.1-0.3-0.3-0.4-0.3c-0.1,0.1-0.4,0.2-0.5,0.3
			c-0.1,0.2-0.2,0.2-0.4,0.1c-0.2-0.2-0.5-0.4-0.8-0.6c-0.3-0.1-0.4,0.1-0.6-0.1c-0.2-0.2-0.2-0.6-0.3-0.8c-0.1-0.2,0-0.4,0.1-0.4
			c0.1,0,0.2,0.1,0.3,0.1c0.1-0.1,0-0.2,0.1-0.3c0.1-0.1,0.2-0.2,0.2-0.2c0-0.1-0.2-0.2-0.2-0.3c0.1-0.1,0.2,0,0.2-0.2
			c-0.1-0.1-0.1-0.3-0.3-0.3c-0.2,0-0.1,0-0.3-0.1c-0.2-0.1-0.1-0.2-0.2-0.3c-0.2,0-0.2,0.1-0.3,0c-0.1-0.2,0-0.3-0.3-0.4
			c-0.2-0.1-0.3-0.1-0.3-0.4c0-0.2-0.1-0.4,0-0.5c0.1-0.1,0.1-0.2-0.1-0.2c-0.1,0-0.2,0.1-0.2,0.1c0,0-0.1,0-0.1,0
			c-0.1-0.1,0-0.2,0-0.3c0-0.1-0.2-0.1-0.3-0.3c-0.1-0.2,0-0.5,0.1-0.6c0.2-0.1,0.5-0.4,0.6-0.6c0.1-0.2,0.3-0.3,0.5-0.4
			c0.2-0.1,0.5-0.4,0.7-0.3c0.2,0,0.4,0.1,0.5,0.1c0.1,0,0.4,0.1,0.4,0.3c0,0.2-0.2,0.3-0.1,0.5c0.1,0.2,0.2,0.2,0.3,0.3
			c0.1,0.1,0.1,0.2,0,0.2c-0.1,0-0.1,0-0.2-0.1c-0.1-0.1-0.2-0.2-0.2-0.1c0,0,0,0.2-0.1,0.2c-0.1,0-0.4,0-0.3,0.1
			c0.1,0.1,0.2,0.1,0.2,0.2c0,0.1-0.1,0.2-0.3,0.2c-0.1,0-0.3,0.2,0,0.4c0.3,0.2,0.4,0.2,0.6,0.5c0.2,0.3,0.1,0.4,0.4,0.4
			c0.2,0,0.5-0.1,0.5,0c-0.1,0.1-0.3,0.1-0.3,0.2c0,0.1-0.1,0.3,0.1,0.6c0.1,0.3,0.3,0.2,0.4,0.2c0.1,0,0.1-0.1,0.1-0.2
			c-0.1-0.1-0.2-0.5-0.1-0.4c0.2,0,0.1,0.2,0.2,0.3c0.1,0.1,0.3,0.4,0.3,0.5c0,0.1,0,0.2-0.2,0.1c-0.2,0-0.5-0.1-0.5,0.1
			c0,0.2,0,0.4,0.1,0.4c0.1,0.1,0.4,0.1,0.4,0.2c-0.1,0.1-0.3,0-0.2,0.3c0.1,0.2,0.2,0.1,0.4,0.3c0.2,0.2,0.1,0.3,0.2,0.6
			c0.1,0.3,0.2,0.5,0.2,0.5C393,187.1,393.2,187.3,393.2,187.4z"/>
		<path class="st5" d="M378.2,184.9c-0.1-0.1-0.1-0.1,0-0.2c0.1-0.1,0,0-0.1,0c-0.1,0.1-0.3,0-0.4,0.2c-0.2,0.2-0.2,0.2-0.5,0.2
			c-0.2,0-0.4,0.2-0.3,0.2c0,0,0.2,0,0.4,0c0.3,0,0.6-0.1,0.8-0.1C378.4,185,378.3,185,378.2,184.9z"/>
	</g>
	<path class="st5" d="M89.6,248.5c0,2.2-1.8,4-4,4c-2.2,0-4-1.8-4-4c0-2.2,1.8-4,4-4C87.8,244.6,89.6,246.3,89.6,248.5z"/>
	<path class="st5" d="M86.7,303.1c0,2.2-1.8,4-4,4c-2.2,0-4-1.8-4-4c0-2.2,1.8-4,4-4C84.9,299.1,86.7,300.9,86.7,303.1z"/>
	<g>
		<path class="st5" d="M78.8,270.4c-4,0-7.2,3.2-7.2,7.2c0,4,3.2,7.2,7.2,7.2c4,0,7.2-3.2,7.2-7.2C86.1,273.6,82.8,270.4,78.8,270.4
			z M78.8,284.4c-1.3,0-2.4-0.3-3.4-0.9c-0.1,0-0.1-0.1-0.2-0.1c-0.5-0.3-1-0.7-1.4-1.2c0,0-0.1-0.1-0.1-0.1
			c-0.1-0.1-0.2-0.2-0.3-0.3c-0.1-0.1-0.1-0.2-0.2-0.3c0-0.1-0.1-0.1-0.1-0.2c-0.1-0.1-0.2-0.3-0.3-0.4c-0.1-0.1-0.1-0.2-0.2-0.3
			c-0.4-0.9-0.7-1.9-0.7-2.9c0-1.1,0.2-2,0.7-2.9c0.1-0.1,0.1-0.2,0.2-0.3c0.1-0.1,0.2-0.3,0.3-0.4c0-0.1,0.1-0.1,0.1-0.2
			c0.1-0.1,0.1-0.2,0.2-0.3c0.1-0.1,0.2-0.2,0.3-0.3c0,0,0.1-0.1,0.1-0.1c0.4-0.4,0.9-0.8,1.4-1.2c0.1,0,0.1-0.1,0.2-0.1
			c1-0.6,2.2-0.9,3.4-0.9c2.8,0,5.2,1.7,6.2,4.1c0,0,0,0.1,0,0.1c0.1,0.2,0.2,0.5,0.2,0.7c0.2,0.6,0.3,1.2,0.3,1.9
			c0,0.7-0.1,1.3-0.3,1.9c-0.1,0.2-0.1,0.5-0.2,0.7c0,0,0,0.1,0,0.1C84,282.7,81.6,284.4,78.8,284.4z"/>
	</g>
	<rect x="135.5" y="194.1" class="st2" width="240.3" height="180.7"/>
	<path class="st6" d="M235.1,311.3v-66.2l57.4,33.1L235.1,311.3z M236.5,247.6v61.2l53-30.6L236.5,247.6z"/>
	<rect x="135.5" y="194.1" class="st5" width="240.3" height="10.2"/>
	<rect x="135.5" y="344.4" class="st5" width="240.3" height="30.5"/>
	<rect x="162.6" y="358.6" class="st7" width="112" height="1.9"/>
	<rect x="274.6" y="358.6" class="st8" width="93" height="1.9"/>
	<path class="st5" d="M352,199.5c0,1.1-0.9,2-2,2c-1.1,0-2-0.9-2-2c0-1.1,0.9-2,2-2C351,197.5,352,198.4,352,199.5z"/>
	<path class="st5" d="M360.1,199.5c0,1.1-0.9,2-2,2c-1.1,0-2-0.9-2-2c0-1.1,0.9-2,2-2C359.2,197.5,360.1,198.4,360.1,199.5z"/>
	<path class="st5" d="M368.3,199.5c0,1.1-0.9,2-2,2c-1.1,0-2-0.9-2-2c0-1.1,0.9-2,2-2C367.4,197.5,368.3,198.4,368.3,199.5z"/>
	<g>
		<path class="st9" d="M143.4,364.5v-9.8l8.5,4.9L143.4,364.5z M144.1,355.9v7.3l6.4-3.7L144.1,355.9z"/>
	</g>
	<g>
		<path class="st10" d="M141.6,332.6h-38.8c-4.9,0-8.9-4-8.9-8.9v-19.2c0-4.9,4-8.9,8.9-8.9h38.8c4.9,0,8.9,4,8.9,8.9v19.2
			C150.5,328.7,146.5,332.6,141.6,332.6z"/>
		<path class="st11" d="M123,332.6H103c-5,0-9-4.1-9-9v-18.9c0-5,4.1-9,9-9H123V332.6z"/>
		<polygon class="st5" points="134.8,314.5 115,326 115,303.1 		"/>
	</g>
	<path class="st12" d="M192.4,160c-11.9,0.4-14.4,3.1-14.1,15c-0.4-11.9-3.1-14.4-15-14c11.9-0.4,14.4-3.1,14.1-15
		C177.8,157.8,180.6,160.4,192.4,160z"/>
	<path class="st12" d="M428.4,271.4c-11.9,0.4-14.4,3.1-14.1,15c-0.4-11.9-3.1-14.4-15-14c11.9-0.4,14.4-3.1,14.1-15
		C413.8,269.2,416.5,271.8,428.4,271.4z"/>
	<path class="st12" d="M155.7,257.1c-8,0.3-9.7,2.1-9.5,10.1c-0.2-8-2.1-9.7-10.1-9.4c8-0.3,9.7-2.1,9.5-10.1
		C145.9,255.6,147.7,257.3,155.7,257.1z"/>
	<path class="st12" d="M406.4,249.4c-6.3,0.2-7.6,1.7-7.5,7.9c-0.2-6.3-1.6-7.6-7.9-7.4c6.3-0.2,7.6-1.7,7.5-7.9
		C398.6,248.3,400.1,249.6,406.4,249.4z"/>
	<path class="st10" d="M336,296.8c0-14,15.8-25.4,35.3-25.4c19.5,0,35.3,11.4,35.3,25.4c0,14-15.8,25.4-35.3,25.4c-0.7,0-1.4,0-2,0
		c-3.7,3.3-10.7,7.6-22.5,6.5c0,0,7-2.8,9.3-9C344.2,315.6,336,306.9,336,296.8z"/>
	<circle class="st13" cx="361" cy="298.5" r="2.8"/>
	<circle class="st13" cx="370.4" cy="298.5" r="2.8"/>
	<circle class="st13" cx="379.8" cy="298.5" r="2.8"/>
	<path class="st10" d="M318.5,195l-25.4-25.6c0,0-5.8-2.7-8.7,1L262,192.5c-1.3,1.3-2,3-1.9,4.8c0.1,2.4,1.6,5.1,8.2,4.2l0.5,0
		c0,0-5.1,3.1-4.6,6.1c0,0-0.8,7.7,8.3,5.7c0,0-6.8,5.1-4.1,9c0,0,1.7,4.8,8.3,2.5c0,0-5.3,5.7-11.3,11.3c0,0-7.6,7.2-3.9,10.9
		c0,0,4.2,4.7,14.6-6.7l18.2-18c0,0,3.5-3.7,4,0.6l-2.1,7.8c-0.6,2.1,0,4.5,1.6,6c0.6,0.6,1.3,1.1,2.2,1.2c3,0.6,4.3-2.9,4.8-4
		C304.8,233.6,319.8,195.6,318.5,195z"/>
	
		<rect x="303" y="159.8" transform="matrix(0.7071 -0.7071 0.7071 0.7071 -36.6471 269.4025)" class="st14" width="7.7" height="38.3"/>
	
		<rect x="303.3" y="141.4" transform="matrix(0.7071 -0.7071 0.7071 0.7071 -20.7323 275.8835)" class="st1" width="38.6" height="43.1"/>
	
		<rect x="311.1" y="159.9" transform="matrix(0.7071 -0.7071 0.7071 0.7071 -23.9275 283.598)" class="st2" width="38.6" height="21.6"/>
	<path class="st10" d="M227.9,197.7c-2.6,0-5.2,0-7.8,0c-0.7,0-1.3-0.2-1.8-0.8c-1.9-2-3.1-4.3-3.3-7.1c-0.2-2.2-1.2-4.2-2.5-6
		c-0.9-1.3-1.9-2.5-2.9-3.7c-3.5-4.2-4.4-9-4-14.2c0.8-9.5,8.1-17.7,18.3-19.4c12.2-2.1,23.7,5.8,25.8,17.6
		c1.1,6.1,0.1,11.8-4.1,16.6c-0.8,0.9-1.5,1.8-2.2,2.7c-1.7,2.3-2.7,4.8-2.9,7.6c-0.2,2.6-1.7,4.6-3.5,6.3c-0.3,0.3-0.9,0.4-1.3,0.4
		C233.1,197.7,230.5,197.7,227.9,197.7z"/>
	<path class="st11" d="M240.4,191.6c-0.4,2.3-1.8,4-3.4,5.7c-0.3,0.3-0.9,0.4-1.3,0.4c-2.6,0-5.3,0-7.9,0c-2.6,0-5.2,0-7.8,0
		c-0.7,0-1.3-0.2-1.8-0.8c-1.5-1.6-2.5-3.3-3-5.3c0.5,0.6,1,1.2,1.6,1.7c0.6,0.5,1.2,0.8,2.1,0.8c3,0,6,0,8.9,0c3,0,6,0,9,0
		c0.5,0,1.2-0.1,1.5-0.4C239.1,193.1,239.8,192.4,240.4,191.6z"/>
	<path class="st11" d="M223.9,146.4c-10.2,1.7-17.5,10-18.3,19.4c-0.4,5.2,0.5,10.1,4,14.3c1,1.2,2,2.4,2.9,3.7
		c1.3,1.8,2.3,3.8,2.5,6c0.2,2.8,1.4,5.1,3.3,7.1c0.5,0.5,1.1,0.8,1.8,0.8c0.8,0,1.6,0,2.4,0c-1.5-1.8-2.4-3.9-2.5-6.3
		c-0.2-2.2-1.2-4.2-2.5-6c-0.9-1.3-1.9-2.5-2.9-3.7c-3.5-4.2-4.4-9-4-14.3c0.8-9.5,8.1-17.7,18.3-19.4c2.9-0.5,5.7-0.4,8.4,0.1
		C233.3,146.3,228.7,145.6,223.9,146.4z"/>
	<path class="st1" d="M237.5,213.8h-19.3c-1.4,0-2.6-1.2-2.6-2.6v-13.1c0-1.4,1.2-2.6,2.6-2.6h19.3c1.4,0,2.6,1.2,2.6,2.6v13.1
		C240.1,212.6,238.9,213.8,237.5,213.8z"/>
	<g>
		<path class="st3" d="M240.2,199.3h-24.8c-1,0-1.8-0.8-1.8-1.8v-0.3c0-1,0.8-1.8,1.8-1.8h24.8c1,0,1.8,0.8,1.8,1.8v0.3
			C242,198.5,241.2,199.3,240.2,199.3z"/>
		<path class="st3" d="M240.2,204.1h-24.8c-1,0-1.8-0.8-1.8-1.8V202c0-1,0.8-1.8,1.8-1.8h24.8c1,0,1.8,0.8,1.8,1.8v0.3
			C242,203.3,241.2,204.1,240.2,204.1z"/>
		<path class="st3" d="M240.2,208.9h-24.8c-1,0-1.8-0.8-1.8-1.8v-0.3c0-1,0.8-1.8,1.8-1.8h24.8c1,0,1.8,0.8,1.8,1.8v0.3
			C242,208,241.2,208.9,240.2,208.9z"/>
	</g>
	<path class="st15" d="M241.3,154.7c-5.7-5.3-13.5-5-13.8-5c-0.9,0-1.6,0.8-1.5,1.7c0,0.9,0.8,1.6,1.7,1.5c0.1,0,6.7-0.3,11.4,4.1
		c3.1,2.9,4.7,7.3,4.8,13c0,0.8,0.6,1.4,1.3,1.6c0.1,0,0.2,0,0.3,0c0.9,0,1.6-0.7,1.6-1.6C247,163.4,245,158.2,241.3,154.7z"/>
	<g>
		<path class="st10" d="M179.4,297.1H157c-2.8,0-5.1-2.3-5.1-5.1v-11.1c0-2.8,2.3-5.1,5.1-5.1h22.4c2.8,0,5.1,2.3,5.1,5.1V292
			C184.5,294.8,182.2,297.1,179.4,297.1z"/>
		<path class="st11" d="M168.7,297.1h-11.6c-2.9,0-5.2-2.3-5.2-5.2V281c0-2.9,2.3-5.2,5.2-5.2h11.6V297.1z"/>
		<polygon class="st5" points="175.5,286.7 164,293.3 164,280.1 		"/>
	</g>
</g>
</svg>
